<svg width="24" height="24" viewBox="0 0 24 24" fill="none" xmlns="http://www.w3.org/2000/svg">
<rect width="24" height="24" rx="5" fill="white"/>
<path d="M10.5 4H13.5C13.8103 3.99984 14.1131 4.09593 14.3665 4.27503C14.6199 4.45413 14.8116 4.70742 14.915 5H16.5C16.8978 5 17.2794 5.15804 17.5607 5.43934C17.842 5.72064 18 6.10218 18 6.5V18.5C18 18.8978 17.842 19.2794 17.5607 19.5607C17.2794 19.842 16.8978 20 16.5 20H7.5C7.10218 20 6.72064 19.842 6.43934 19.5607C6.15804 19.2794 6 18.8978 6 18.5V6.5C6 6.10218 6.15804 5.72064 6.43934 5.43934C6.72064 5.15804 7.10218 5 7.5 5H9.085C9.18844 4.70742 9.38008 4.45413 9.63351 4.27503C9.88694 4.09593 10.1897 3.99984 10.5 4V4ZM10 5.5C10 5.63261 10.0527 5.75979 10.1464 5.85355C10.2402 5.94732 10.3674 6 10.5 6H13.5C13.6326 6 13.7598 5.94732 13.8536 5.85355C13.9473 5.75979 14 5.63261 14 5.5C14 5.36739 13.9473 5.24022 13.8536 5.14645C13.7598 5.05268 13.6326 5 13.5 5H10.5C10.3674 5 10.2402 5.05268 10.1464 5.14645C10.0527 5.24022 10 5.36739 10 5.5ZM14.75 11.25C14.9489 11.25 15.1397 11.171 15.2803 11.0303C15.421 10.8897 15.5 10.6989 15.5 10.5C15.5 10.3011 15.421 10.1103 15.2803 9.96967C15.1397 9.82902 14.9489 9.75 14.75 9.75C14.5511 9.75 14.3603 9.82902 14.2197 9.96967C14.079 10.1103 14 10.3011 14 10.5C14 10.6989 14.079 10.8897 14.2197 11.0303C14.3603 11.171 14.5511 11.25 14.75 11.25ZM14.75 14.25C14.9489 14.25 15.1397 14.171 15.2803 14.0303C15.421 13.8897 15.5 13.6989 15.5 13.5C15.5 13.3011 15.421 13.1103 15.2803 12.9697C15.1397 12.829 14.9489 12.75 14.75 12.75C14.5511 12.75 14.3603 12.829 14.2197 12.9697C14.079 13.1103 14 13.3011 14 13.5C14 13.6989 14.079 13.8897 14.2197 14.0303C14.3603 14.171 14.5511 14.25 14.75 14.25ZM14 16.5C14 16.6989 14.079 16.8897 14.2197 17.0303C14.3603 17.171 14.5511 17.25 14.75 17.25C14.9489 17.25 15.1397 17.171 15.2803 17.0303C15.421 16.8897 15.5 16.6989 15.5 16.5C15.5 16.3011 15.421 16.1103 15.2803 15.9697C15.1397 15.829 14.9489 15.75 14.75 15.75C14.5511 15.75 14.3603 15.829 14.2197 15.9697C14.079 16.1103 14 16.3011 14 16.5ZM13 10.5C13 10.3674 12.9473 10.2402 12.8536 10.1464C12.7598 10.0527 12.6326 10 12.5 10H9C8.86739 10 8.74021 10.0527 8.64645 10.1464C8.55268 10.2402 8.5 10.3674 8.5 10.5C8.5 10.6326 8.55268 10.7598 8.64645 10.8536C8.74021 10.9473 8.86739 11 9 11H12.5C12.6326 11 12.7598 10.9473 12.8536 10.8536C12.9473 10.7598 13 10.6326 13 10.5ZM13 13.5C13 13.3674 12.9473 13.2402 12.8536 13.1464C12.7598 13.0527 12.6326 13 12.5 13H9C8.86739 13 8.74021 13.0527 8.64645 13.1464C8.55268 13.2402 8.5 13.3674 8.5 13.5C8.5 13.6326 8.55268 13.7598 8.64645 13.8536C8.74021 13.9473 8.86739 14 9 14H12.5C12.6326 14 12.7598 13.9473 12.8536 13.8536C12.9473 13.7598 13 13.6326 13 13.5ZM13 16.5C13 16.3674 12.9473 16.2402 12.8536 16.1464C12.7598 16.0527 12.6326 16 12.5 16H9C8.86739 16 8.74021 16.0527 8.64645 16.1464C8.55268 16.2402 8.5 16.3674 8.5 16.5C8.5 16.6326 8.55268 16.7598 8.64645 16.8536C8.74021 16.9473 8.86739 17 9 17H12.5C12.6326 17 12.7598 16.9473 12.8536 16.8536C12.9473 16.7598 13 16.6326 13 16.5Z" fill="#3A51C0"/>
</svg>
